<?xml version="1.0" encoding="UTF-8" standalone="no"?>
<!-- Created with Inkscape (http://www.inkscape.org/) -->

<svg
   xmlns:dc="http://purl.org/dc/elements/1.1/"
   xmlns:cc="http://creativecommons.org/ns#"
   xmlns:rdf="http://www.w3.org/1999/02/22-rdf-syntax-ns#"
   xmlns:svg="http://www.w3.org/2000/svg"
   xmlns="http://www.w3.org/2000/svg"
   xmlns:sodipodi="http://sodipodi.sourceforge.net/DTD/sodipodi-0.dtd"
   xmlns:inkscape="http://www.inkscape.org/namespaces/inkscape"
   width="744.09448819"
   height="1052.3622047"
   id="svg2"
   version="1.1"
   inkscape:version="0.48.2 r9819"
   sodipodi:docname="New document 1">
  <defs
     id="defs4" />
  <sodipodi:namedview
     id="base"
     pagecolor="#ffffff"
     bordercolor="#666666"
     borderopacity="1.0"
     inkscape:pageopacity="0.0"
     inkscape:pageshadow="2"
     inkscape:zoom="1.228276"
     inkscape:cx="344.33861"
     inkscape:cy="374.05787"
     inkscape:document-units="px"
     inkscape:current-layer="layer1"
     showgrid="false"
     showguides="true"
     inkscape:guide-bbox="true"
     inkscape:window-width="1238"
     inkscape:window-height="675"
     inkscape:window-x="151"
     inkscape:window-y="26"
     inkscape:window-maximized="0" />
  <metadata
     id="metadata7">
    <rdf:RDF>
      <cc:Work
         rdf:about="">
        <dc:format>image/svg+xml</dc:format>
        <dc:type
           rdf:resource="http://purl.org/dc/dcmitype/StillImage" />
        <dc:title></dc:title>
      </cc:Work>
    </rdf:RDF>
  </metadata>
  <g
     inkscape:label="Layer 1"
     inkscape:groupmode="layer"
     id="layer1">
    <rect
       style="fill:#ffffff;fill-opacity:1;stroke:none"
       id="rect2985"
       width="800"
       height="200"
       x="-18.605526"
       y="622.7677"
       rx="0.031566851"
       ry="0.1068498"
       inkscape:export-filename="/Users/neal/Desktop/gam_twitter_card.png"
       inkscape:export-xdpi="90"
       inkscape:export-ydpi="90" />
    <text
       xml:space="preserve"
       style="font-size:144px;font-style:normal;font-variant:normal;font-weight:normal;font-stretch:normal;text-align:center;line-height:125%;letter-spacing:0px;word-spacing:0px;text-anchor:middle;fill:#000000;fill-opacity:1;stroke:none;font-family:ubuntu;-inkscape-font-specification:ubuntu"
       x="380.96722"
       y="761.30414"
       id="text3887"
       sodipodi:linespacing="125%"><tspan
         sodipodi:role="line"
         id="tspan3889"
         x="380.96722"
         y="761.30414"
         style="font-size:35px;font-style:normal;font-variant:normal;font-weight:normal;font-stretch:normal;text-align:center;text-anchor:middle;font-family:Open Sans;-inkscape-font-specification:Open Sans">Explore open source one repo at a time.</tspan><tspan
         sodipodi:role="line"
         x="380.96722"
         y="805.05414"
         style="font-size:35px;font-style:normal;font-variant:normal;font-weight:normal;font-stretch:normal;text-align:center;text-anchor:middle;font-family:Open Sans;-inkscape-font-specification:Open Sans"
         id="tspan3891">Join our weekly newsletter.</tspan></text>
    <g
       id="g3980"
       transform="matrix(1.1174612,0,0,1.1174612,11.983977,-366.1045)">
      <path
         inkscape:connector-curvature="0"
         d="m 480.49628,914.57341 c -5.08625,-5.35737 -12.15875,-8.1885 -20.45375,-8.1885 -3.64625,0 -7.23625,0.689 -10.67,2.04788 -3.52375,1.3935 -6.68125,3.47075 -9.38375,6.17387 -0.4825,0.48238 -0.9275,1.00875 -1.37625,1.53175 -0.0537,-0.56112 -0.10625,-1.13 -0.16125,-1.68313 -0.46125,-4.63725 -0.97125,-8.89649 -1.5175,-12.66162 -0.6275,-4.33887 -4.3475,-7.55762 -8.73125,-7.55762 l -11.275,0 c -3.225,0 -6.19375,1.76025 -7.74125,4.59024 -1.02,1.86626 -2.19625,4.17051 -3.4975,6.84913 -1.18,2.42775 -2.4325,5.09863 -3.72875,7.94688 -1.29,-2.8375 -2.54125,-5.50738 -3.725,-7.94538 -1.33625,-2.748 -2.48125,-4.98875 -3.5025,-6.8545 -1.54875,-2.82762 -4.515,-4.58637 -7.73875,-4.58637 l -11.83125,0 c -4.38375,0 -8.1025,3.21875 -8.73125,7.55762 -0.35875,2.4755 -0.69875,5.17775 -1.0225,8.03712 -1.86375,-2.83012 -4.08,-5.35212 -6.63375,-7.52987 -3.92625,-3.34275 -8.585,-5.89787 -13.85375,-7.59812 -5.0375,-1.6265 -10.5175,-2.45113 -16.2875,-2.45113 -5.42375,0 -10.77625,0.916 -15.91125,2.72312 -5.3,1.86813 -10.0825,4.70851 -14.21875,8.44438 -2.20813,1.99463 -4.18863,4.25825 -5.9425,6.75775 -1.60313,-1.65138 -3.84325,-2.68062 -6.32625,-2.68062 l -5.39063,0 0,-3.48438 c 0,-2.585 -1.13325,-5.04 -3.101,-6.71638 -1.6075,-1.36912 -3.63962,-2.10637 -5.72125,-2.10637 -0.46625,0 -0.935,0.0371 -1.40275,0.11225 l -11.83012,1.90525 c -0.041,0.007 -0.0796,0.0181 -0.12013,0.025 -0.99612,-2.07675 -2.32425,-3.62413 -3.5395,-4.70225 -3.021,-2.67675 -6.75987,-4.08925 -10.81787,-4.08925 -4.05863,0 -7.79838,1.413 -10.8145,4.08637 -1.2105,1.07325 -2.53225,2.60988 -3.52738,4.67138 -0.1645,-0.0815 -0.31925,-0.16013 -0.497,-0.24613 -1.42587,-0.69287 -3.08212,-1.31687 -5.0665,-1.90962 -1.88912,-0.5625 -4.00925,-1.03375 -6.48925,-1.44238 -2.558,-0.42087 -5.40375,-0.63374 -8.46137,-0.63374 -4.86475,0 -9.53463,0.83299 -13.87988,2.476 -4.50687,1.70262 -8.49762,4.253 -11.8589,7.57912 -3.33447,3.29737 -5.97753,7.33063 -7.85302,11.98537 -1.84718,4.58251 -2.7837,9.80613 -2.7837,15.52538 0,5.56988 0.83545,10.67675 2.48242,15.17925 1.72218,4.71038 4.24463,8.78613 7.49708,12.11075 3.27637,3.34812 7.24662,5.9185 11.80225,7.64112 4.34612,1.64263 9.17525,2.47563 14.355,2.47563 5.45113,0 9.99462,-0.38138 13.89012,-1.166 3.88625,-0.78425 6.62888,-1.51663 8.63526,-2.30612 0.14212,-0.0562 0.2695,-0.13488 0.40774,-0.19776 1.6005,1.62638 3.82463,2.63713 6.28663,2.63713 l 11.8305,0 c 3.68512,0 6.83937,-2.26175 8.15925,-5.47112 1.92375,1.8505 4.22987,3.34712 6.8955,4.44725 3.22062,1.3295 6.94525,1.9765 11.38525,1.9765 3.27387,0 6.05712,-0.289 8.50925,-0.88326 2.15525,-0.52099 4.18112,-1.16462 6.01462,-1.91162 0.67875,-0.27638 1.28563,-0.65287 1.8565,-1.06988 1.59275,2.08888 3.3705,3.98688 5.34488,5.66118 4.22875,3.5874 9.215,6.25244 14.8225,7.9209 5.24375,1.56054 10.89875,2.35156 16.80875,2.35156 3.51625,0 6.9175,-0.28516 10.1075,-0.84766 3.11625,-0.5498 5.4675,-1.08447 7.18875,-1.63525 4.1525,-1.32764 6.7125,-5.48878 6.025,-9.79398 l -0.64625,-4.04787 c 1.2375,-0.372 2.43375,-0.83925 3.58625,-1.40138 2.07125,-1.01062 3.94875,-2.33487 5.66125,-3.89149 0.055,2.17862 0.9075,4.27 2.4225,5.85887 1.665,1.748 3.97375,2.73725 6.3875,2.73725 l 9.54875,0 c 4.77,0 11.1975,-3.04637 11.33875,-7.81437 0.005,-0.15976 0.14625,-0.33501 0.3825,-0.25351 2.0975,0.72226 9.86375,0.48588 9.86375,0.48588 0,0 7.12125,0.27338 9.36875,-0.48588 0.28625,-0.0961 0.37875,0.0937 0.38375,0.25351 0.14125,4.768 6.56875,7.81437 11.33875,7.81437 l 9.54875,0 c 2.415,0 4.72375,-0.98975 6.38875,-2.73775 0.905,-0.95075 1.5675,-2.084 1.97375,-3.30475 2.32,1.99375 5.025,3.6285 8.09,4.855 3.81375,1.52587 8.215,2.29888 13.08375,2.29888 1.79125,0 3.60375,-0.0968 5.38625,-0.28763 1.69875,-0.18212 3.3225,-0.4145 4.825,-0.69137 1.6,-0.293 3.10625,-0.64988 4.4725,-1.05963 1.56125,-0.46825 2.85375,-0.96287 3.95125,-1.51212 3.46125,-1.73001 5.39,-5.51225 4.76,-9.32913 l -1.15875,-7.00925 c 1.935,-1.46588 3.2525,-3.71538 3.46875,-6.30325 0.0562,-0.68312 0.11375,-1.46587 0.17125,-2.34862 0.065,-1.01175 0.0975,-1.96438 0.0975,-2.83113 0,-9.34175 -2.55125,-16.768 -7.58375,-22.07175 z"
         style="fill:none;stroke:none"
         id="path3942" />
      <path
         inkscape:connector-curvature="0"
         d="m 211.12278,912.58654 c -5.77,0 -9.939,1.60212 -12.50537,4.80425 -2.56838,3.20362 -3.85163,7.583 -3.85163,13.14112 0,2.69925 0.31788,5.14838 0.95275,7.34425 0.63563,2.19675 1.58837,4.08888 2.85887,5.67775 1.2705,1.58788 2.85838,2.81838 4.76413,3.69088 1.90525,0.87399 4.12887,1.311 6.66988,1.311 1.375,0 2.55325,-0.0259 3.53275,-0.08 0.9795,-0.0518 1.83887,-0.15875 2.58099,-0.31738 l 0,-19.13525 12.38626,0 0,27.23388 c -1.48238,0.5835 -3.86476,1.205 -7.14601,1.86712 -3.28262,0.66063 -7.33199,0.99175 -12.14837,0.99175 -4.12888,0 -7.874,-0.63475 -11.23488,-1.90525 -3.36275,-1.271 -6.23337,-3.12362 -8.61574,-5.55812 -2.38188,-2.43463 -4.22163,-5.42538 -5.51854,-8.97263 -1.29688,-3.546 -1.94483,-7.59525 -1.94483,-12.148 0,-4.6055 0.71435,-8.68062 2.14404,-12.228 1.4287,-3.54587 3.3867,-6.55075 5.87545,-9.01225 2.48787,-2.46138 5.41113,-4.32712 8.774,-5.59712 3.36075,-1.271 6.94725,-1.90625 10.75925,-1.90625 2.59225,0 4.93462,0.17237 7.02637,0.51662 2.09075,0.34413 3.89063,0.74113 5.39938,1.19038 1.50888,0.45062 2.7515,0.91362 3.732,1.38962 0.979,0.47662 1.68012,0.84763 2.104,1.11138 l -3.57275,9.92525 c -1.69488,-0.89888 -3.64012,-1.67913 -5.836,-2.34225 -2.19775,-0.66063 -4.59325,-0.99275 -7.186,-0.99275"
         style="fill:#2d2d26;fill-opacity:1;fill-rule:nonzero;stroke:none"
         id="path3944" />
      <path
         inkscape:connector-curvature="0"
         d="m 250.26728,958.08316 -11.8305,0 0,-41.76463 11.8305,0 0,41.76463 z m 1.11187,-53.8335 c 0,2.17138 -0.70225,3.8785 -2.1045,5.12163 -1.40337,1.24462 -3.05662,1.86624 -4.96287,1.86624 -1.90538,0 -3.56013,-0.62162 -4.9625,-1.86624 -1.40325,-1.24313 -2.104,-2.95025 -2.104,-5.12163 0,-2.16938 0.70075,-3.87687 2.104,-5.12112 1.40237,-1.24313 3.05712,-1.86563 4.9625,-1.86563 1.90625,0 3.5595,0.6225 4.96287,1.86563 1.40225,1.24425 2.1045,2.95174 2.1045,5.12112"
         style="fill:#2d2d26;fill-opacity:1;fill-rule:nonzero;stroke:none"
         id="path3946" />
      <path
         inkscape:connector-curvature="0"
         d="m 260.19165,905.91716 11.8305,-1.90525 0,12.30662 14.21288,0 0,9.84576 -14.21288,0 0,14.68887 c 0,2.48875 0.437,4.47413 1.31013,5.95613 0.8735,1.48187 2.63275,2.22312 5.28025,2.22312 1.271,0 2.5805,-0.11962 3.93063,-0.35737 1.34962,-0.23888 2.58062,-0.56838 3.69187,-0.99326 l 1.6675,9.2115 c -1.42875,0.582 -3.01713,1.08538 -4.76412,1.50776 -1.74663,0.42337 -3.89063,0.63475 -6.43113,0.63475 -3.2295,0 -5.90388,-0.43551 -8.02,-1.309 -2.11775,-0.87413 -3.81112,-2.09138 -5.08162,-3.65338 -1.27051,-1.5605 -2.15726,-3.45362 -2.66013,-5.67625 -0.50337,-2.22412 -0.75387,-4.68463 -0.75387,-7.38475 l 0,-35.09525"
         style="fill:#2d2d26;fill-opacity:1;fill-rule:nonzero;stroke:none"
         id="path3948" />
      <path
         inkscape:connector-curvature="0"
         d="m 333.95253,946.41178 c -0.105,-0.42337 -0.185,-1.04487 -0.2375,-1.86624 -0.0525,-0.81925 -0.08,-1.59963 -0.08,-2.34175 l 0,-16.19826 c -1.0575,-0.2105 -2.17,-0.31737 -3.33375,-0.31737 -1.74625,0 -3.22875,0.27838 -4.44625,0.834 -1.21875,0.55563 -2.1975,1.31 -2.9375,2.26263 -0.7425,0.95275 -1.28375,2.07812 -1.62875,3.375 -0.34375,1.29687 -0.51625,2.713 -0.51625,4.24662 0,1.53613 0.1325,2.95263 0.3975,4.249 0.265,1.29688 0.7275,2.42088 1.39,3.3745 0.66125,0.95263 1.5475,1.70763 2.66,2.26225 1.11125,0.55663 2.4875,0.8345 4.12875,0.8345 0.9525,0 1.8525,-0.0664 2.69875,-0.19925 0.8475,-0.13187 1.4825,-0.30425 1.905,-0.51563 z m 11.1975,9.44876 c -1.53625,0 -3.07125,-0.18463 -4.60625,-0.55613 -1.53625,-0.36912 -2.80625,-1.03125 -3.81125,-1.98387 -2.33,1.64062 -5.2675,2.45987 -8.8125,2.45987 -2.64875,0 -5.07,-0.40862 -7.26625,-1.23038 -2.19625,-0.81987 -4.07625,-2.05087 -5.6375,-3.69149 -1.56125,-1.64063 -2.77875,-3.66551 -3.6525,-6.07513 -0.8725,-2.40725 -1.31,-5.20025 -1.31,-8.377 0,-2.69825 0.4375,-5.21238 1.31,-7.5425 0.87375,-2.32862 2.15625,-4.353 3.85125,-6.07375 1.69375,-1.71925 3.77125,-3.083 6.23375,-4.08925 2.46125,-1.005 5.2525,-1.50837 8.37625,-1.50837 3.1225,0 5.88875,0.27737 8.29625,0.83299 2.40875,0.55663 4.4075,1.1255 5.99625,1.707 l 0,24.93263 c 0,1.21825 0.25125,2.03813 0.75375,2.4615 0.5025,0.42337 1.23125,0.63525 2.18375,0.63525 0.845,0 1.68,-0.23875 2.50125,-0.71537 0.82,-0.476 1.52125,-1.33638 2.105,-2.5805 0.58,-1.24325 1.05625,-2.938 1.42875,-5.08113 0.36875,-2.144 0.555,-4.85637 0.555,-8.13862 0,-3.28125 -0.56875,-6.28513 -1.7075,-9.01175 -1.13875,-2.72563 -2.7775,-5.05513 -4.9225,-6.98725 -2.14375,-1.93163 -4.76375,-3.44101 -7.86,-4.52638 -3.0975,-1.0845 -6.605,-1.628 -10.52125,-1.628 -3.75875,0 -7.2125,0.63525 -10.36125,1.90625 -3.15,1.27 -5.87625,3.084 -8.17875,5.439 -2.3025,2.3555 -4.1025,5.2275 -5.39875,8.61475 -1.29875,3.38863 -1.94625,7.19975 -1.94625,11.43362 0,4.394 0.635,8.24513 1.90625,11.55226 1.27,3.3095 3.0825,6.07512 5.43875,8.29825 2.355,2.22275 5.21375,3.90287 8.575,5.04112 3.36125,1.13863 7.15875,1.70838 11.395,1.70838 2.645,0 5.1475,-0.17325 7.5025,-0.517 2.355,-0.34426 4.3275,-0.67438 5.91625,-0.99175 l 1.19125,7.4634 c -1.325,0.42333 -3.33625,0.87402 -6.035,1.3501 -2.7,0.47656 -5.55875,0.71386 -8.575,0.71386 -5.0825,0 -9.84625,-0.6621 -14.2925,-1.98535 -4.44625,-1.32276 -8.325,-3.38676 -11.6325,-6.19339 -3.30875,-2.80612 -5.915,-6.39162 -7.82125,-10.75825 -1.90575,-4.36675 -2.85838,-9.59425 -2.85838,-15.68163 0,-5.875 1.00488,-11.02299 3.01713,-15.44337 2.01125,-4.4195 4.6575,-8.11138 7.94125,-11.07662 3.28125,-2.96388 7.02625,-5.18663 11.23375,-6.67 4.20875,-1.48088 8.53625,-2.22263 12.9825,-2.22263 4.87,0 9.39625,0.67425 13.5775,2.02438 4.18125,1.34962 7.79375,3.32275 10.83875,5.9155 3.0425,2.59425 5.43875,5.81012 7.18625,9.6475 1.74625,3.83837 2.62,8.24512 2.62,13.22025 0,3.86425 -0.41125,7.292 -1.23125,10.28275 -0.82125,2.99062 -2.0125,5.49162 -3.5725,7.50287 -1.5625,2.01225 -3.4275,3.54738 -5.5975,4.606 -2.17125,1.0595 -4.60625,1.58738 -7.305,1.58738"
         style="fill:#409adb;fill-opacity:1;fill-rule:nonzero;stroke:none"
         id="path3950" />
      <path
         inkscape:connector-curvature="0"
         d="m 386.99378,903.05879 c 0.95625,1.747 2.05625,3.90424 3.30375,6.47112 1.2475,2.56838 2.5475,5.34725 3.90125,8.337 1.35375,2.99163 2.6925,6.04825 4.02125,9.17138 1.325,3.12349 2.57125,6.06199 3.74125,8.813 1.16625,-2.751 2.41375,-5.68951 3.74125,-8.813 1.3275,-3.12313 2.66625,-6.17975 4.02,-9.17138 1.35375,-2.98975 2.65375,-5.76862 3.90125,-8.337 1.2475,-2.56688 2.34875,-4.72412 3.30375,-6.47112 l 11.275,0 c 0.53,3.65237 1.02,7.74162 1.47,12.2675 0.44875,4.52587 0.84625,9.23837 1.19,14.13387 0.345,4.8965 0.6625,9.80563 0.9525,14.729 0.29125,4.92188 0.54375,9.55462 0.755,13.894 l -12.06875,0 c -0.15875,-5.34525 -0.37125,-11.168 -0.63625,-17.46725 -0.26375,-6.29937 -0.66125,-12.65087 -1.19,-19.05662 -0.95625,2.22362 -2.0175,4.68449 -3.18625,7.38424 -1.1675,2.69976 -2.32375,5.39938 -3.465,8.09963 -1.14125,2.69875 -2.24375,5.27975 -3.30375,7.74025 -1.0625,2.46138 -1.96625,4.56637 -2.71,6.313 l -8.655,0 c -0.74375,-1.74663 -1.645,-3.85162 -2.7075,-6.313 -1.0625,-2.4605 -2.165,-5.0415 -3.3075,-7.74025 -1.14,-2.70025 -2.295,-5.39988 -3.4625,-8.09963 -1.16875,-2.69975 -2.23125,-5.16062 -3.18625,-7.38424 -0.53,6.40575 -0.92625,12.75725 -1.19125,19.05662 -0.265,6.29925 -0.47625,12.122 -0.635,17.46725 l -12.06875,0 c 0.21,-4.33938 0.4625,-8.97212 0.75375,-13.894 0.29125,-4.92337 0.60875,-9.8325 0.9525,-14.729 0.34375,-4.8955 0.74125,-9.608 1.1925,-14.13387 0.44875,-4.52588 0.93875,-8.61513 1.4675,-12.2675 l 11.83125,0"
         style="fill:#2d2d26;fill-opacity:1;fill-rule:nonzero;stroke:none"
         id="path3952" />
      <path
         inkscape:connector-curvature="0"
         d="m 467.82378,932.99279 c -0.0525,-1.00488 -0.225,-1.98438 -0.515,-2.9375 -0.2925,-0.95313 -0.7425,-1.79926 -1.35125,-2.541 -0.60875,-0.74063 -1.37625,-1.35 -2.3025,-1.82613 -0.92625,-0.47662 -2.0775,-0.71437 -3.45375,-0.71437 -1.32375,0 -2.46125,0.22562 -3.41375,0.67487 -0.9525,0.45062 -1.74625,1.04588 -2.3825,1.78663 -0.63625,0.74162 -1.125,1.601 -1.46875,2.58 -0.345,0.9805 -0.59625,1.97262 -0.755,2.9775 l 15.6425,0 z m -27.79,4.52637 c 0,-3.7045 0.5675,-6.94775 1.7075,-9.727 1.13625,-2.77837 2.6325,-5.09375 4.48625,-6.94725 1.85125,-1.8525 3.98125,-3.25537 6.39125,-4.2085 2.4075,-0.95262 4.8825,-1.42925 7.42375,-1.42925 5.9275,0 10.6125,1.8135 14.05375,5.439 3.44125,3.6265 5.16125,8.96 5.16125,15.999 0,0.688 -0.0262,1.44237 -0.08,2.26375 -0.0525,0.82075 -0.105,1.54825 -0.15875,2.183 l -26.8375,0 c 0.265,2.43513 1.4025,4.36725 3.415,5.796 2.01125,1.42913 4.71125,2.1445 8.09875,2.1445 2.17,0 4.3,-0.19875 6.3925,-0.59625 2.09,-0.39737 3.79625,-0.88612 5.12125,-1.46825 l 1.5875,9.608 c -0.635,0.31738 -1.4825,0.63475 -2.54125,0.95263 -1.05875,0.31737 -2.23625,0.59562 -3.5325,0.83299 -1.29875,0.23876 -2.68875,0.43701 -4.16875,0.59563 -1.48375,0.15875 -2.965,0.23788 -4.4475,0.23788 -3.75875,0 -7.02625,-0.55525 -9.805,-1.6665 -2.78,-1.11288 -5.0825,-2.63288 -6.90875,-4.5665 -1.825,-1.93113 -3.175,-4.22013 -4.05,-6.86813 -0.8725,-2.646 -1.30875,-5.50537 -1.30875,-8.57475"
         style="fill:#2d2d26;fill-opacity:1;fill-rule:nonzero;stroke:none"
         id="path3954" />
    </g>
  </g>
</svg>
